<svg id="Capa_1" enable-background="new 0 0 512 512" height="512" viewBox="0 0 512 512" width="512" xmlns="http://www.w3.org/2000/svg"><path id="XMLID_1241_" d="m97 22h415v69.333h-415z"/><path id="XMLID_1245_" d="m0 24h67v67.333h-67z"/><path id="XMLID_1246_" d="m238.667 297h28.667v105.333h-28.667z"/><path id="XMLID_1247_" d="m357.333 282.472h28.667v119.862h-28.667z"/><path id="XMLID_1248_" d="m134.333 282.139c6.433 0 11.667-5.234 11.667-11.667s-5.233-11.667-11.667-11.667-11.667 5.233-11.667 11.667 5.234 11.667 11.667 11.667z"/><path id="XMLID_1249_" d="m253 212.853c6.434 0 11.667-5.233 11.667-11.667s-5.233-11.667-11.667-11.667c-6.433 0-11.667 5.234-11.667 11.667s5.234 11.667 11.667 11.667z"/><path id="XMLID_1251_" d="m120 367.169h28.667v35.164h-28.667z"/><path id="XMLID_1254_" d="m0 490h512v-368.667h-512zm297.333-57.667h-88.667v-165.333h88.667zm118.667 0h-88.667v-179.861h88.667zm-281.667-203.528c11.462 0 21.857 4.653 29.397 12.168l47.917-34.754c-.2-1.651-.315-3.329-.315-5.033 0-22.975 18.691-41.667 41.667-41.667 14.233 0 26.817 7.178 34.336 18.099l43.473-3.996c3.808-19.076 20.678-33.497 40.858-33.497 22.975 0 41.666 18.691 41.666 41.667s-18.691 41.667-41.666 41.667c-15.122 0-28.385-8.098-35.688-20.184l-41.74 3.836c-2.886 20.178-20.275 35.742-41.239 35.742-10.298 0-19.729-3.763-27.008-9.977l-50.025 36.283c.014.437.033.872.033 1.313 0 22.975-18.691 41.667-41.667 41.667s-41.667-18.692-41.667-41.667 18.693-41.667 41.668-41.667zm-44.333 108.364h88.667v95.164h-88.667z"/><path id="XMLID_1258_" d="m371.667 193.458c6.433 0 11.666-5.233 11.666-11.667s-5.233-11.667-11.666-11.667c-6.434 0-11.667 5.233-11.667 11.667s5.233 11.667 11.667 11.667z"/></svg>