<?xml version="1.0"?>
<svg xmlns="http://www.w3.org/2000/svg" viewBox="0 0 512 512" width="512" height="512"><g id="Fill_out_line" data-name="Fill out line"><path d="M144.92084,440h152a0,0,0,0,1,0,0v32a0,0,0,0,1,0,0h-152a16,16,0,0,1-16-16v0A16,16,0,0,1,144.92084,440Z" style="fill:#cbdbe7"/><rect x="264.92086" y="440" width="203.0185" height="32" rx="15.99998" ry="15.99998" style="fill:#adb9c3"/><path d="M487.60986,315.47,462.72,427.47A15.99589,15.99589,0,0,1,447.1001,440h-146.23A15.999,15.999,0,0,1,285.25,420.53l24.89014-112A15.99589,15.99589,0,0,1,325.76,296H471.99A15.99887,15.99887,0,0,1,487.60986,315.47Z" style="fill:#cbdbe7"/><path d="M456.53,315.47l-24.88989,112A15.9936,15.9936,0,0,1,416.03,440H300.87012A15.999,15.999,0,0,1,285.25,420.53l24.89014-112A15.99589,15.99589,0,0,1,325.76,296h115.1499A15.99915,15.99915,0,0,1,456.53,315.47Z" style="fill:#a9ca2a"/><path d="M264,184A119.87407,119.87407,0,1,1,174.34009,67.87012,119.626,119.626,0,0,1,264,184Z" style="fill:#91d3ee"/><path d="M264,184a119.626,119.626,0,0,1-39.25,88.75L208,256l8-24-16-24,16-16,8-24-8-16H192l-40-32,22.34009-52.12988A120.05685,120.05685,0,0,1,264,184Z" style="fill:#a9ca2a"/><path d="M72,208l40,16-8,16H72L58.10986,267.78A119.98559,119.98559,0,0,1,77.8501,83.87012L120,120l-16,40L64,144l-8,24,16,8Z" style="fill:#a9ca2a"/><path d="M144,24A55.99746,55.99746,0,0,0,88,80c0,30.92993,56,104,56,104s56-73.07007,56-104A55.99746,55.99746,0,0,0,144,24Zm0,80a24,24,0,1,1,24-24A24.00619,24.00619,0,0,1,144,104Z" style="fill:#e03e21"/><path d="M424,488H312a47.99956,47.99956,0,0,1,48-48h16a48.004,48.004,0,0,1,48,48Z" style="fill:#91d3ee"/><path d="M495.42188,317.20605A23.99921,23.99921,0,0,0,471.99316,288H325.75586A23.858,23.858,0,0,0,302.32715,306.794l-6.13672,27.61425,15.61914,3.47071,6.13672-27.61426A7.95238,7.95238,0,0,1,325.75586,304h115.1582a7.99888,7.99888,0,0,1,7.80957,9.73535l-24.88867,112A7.95239,7.95239,0,0,1,416.02539,432H300.86719a7.99888,7.99888,0,0,1-7.80957-9.73535l8.11718-36.5293-15.61914-3.4707-8.11718,36.5293A23.90856,23.90856,0,0,0,278.22778,432H144.9209a24,24,0,1,0,0,48H304.58057A56.18353,56.18353,0,0,0,304,488a8.00039,8.00039,0,0,0,8,8H424a8.00039,8.00039,0,0,0,8-8,56.18353,56.18353,0,0,0-.58057-8h20.52a23.98781,23.98781,0,0,0,15.10694-42.63086,24.16033,24.16033,0,0,0,3.48681-8.16309Zm-55.96778,112,24.88867-112A23.90856,23.90856,0,0,0,463.55347,304h8.43969a7.99887,7.99887,0,0,1,7.80957,9.73535l-24.88867,112A7.95238,7.95238,0,0,1,447.10449,432h-8.46826A24.53388,24.53388,0,0,0,439.4541,429.20605ZM136.9209,456a8.00917,8.00917,0,0,1,8-8H258.29712a23.94021,23.94021,0,0,0,0,16H144.9209A8.00917,8.00917,0,0,1,136.9209,456Zm172.49341,8H280.9209a8,8,0,0,1,0-16h39.94043A56.25413,56.25413,0,0,0,309.41431,464ZM360,448h16v32H320.80371A40.07012,40.07012,0,0,1,360,448Zm32,32V451.3501A40.14512,40.14512,0,0,1,415.19629,480Zm59.93945-16H426.58569a56.25413,56.25413,0,0,0-11.447-16h36.80078a8,8,0,1,1,0,16Z"/><path d="M136,360a8.00039,8.00039,0,0,0,8,8H360V352H152V311.74268C218.866,307.59814,272,251.8916,272,184a128.20106,128.20106,0,0,0-42.66406-95.40527L218.66406,100.5166a111.90656,111.90656,0,0,1,6.13233,160.96533l-7.64307-7.64306,6.43652-19.3086a8.00257,8.00257,0,0,0-.93359-6.96777l-12.3623-18.543,11.36328-11.3623a8.02088,8.02088,0,0,0,1.93261-3.127l8-24a8.00084,8.00084,0,0,0-.43457-6.10839l-8-16A8.00022,8.00022,0,0,0,216,144H192v16h19.05566l4.30664,8.61426-6.35449,19.06445-14.665,14.66406a8.00082,8.00082,0,0,0-.999,10.09473l13.8291,20.74414-6.76269,20.28809a8.00185,8.00185,0,0,0,1.93261,8.1875l10.571,10.571a111.77617,111.77617,0,0,1-145.01563-6.136L76.94434,248H104a8.00022,8.00022,0,0,0,7.15527-4.42188l8-16a8.00038,8.00038,0,0,0-4.18457-11.00585L80,202.584V176a8.00022,8.00022,0,0,0-4.42188-7.15527l-9.79492-4.89746,3.12305-9.36817,24.12305,9.64844,5.9414-14.85547-32-12.7998a7.99943,7.99943,0,0,0-10.56054,4.89746l-8,24a8.00064,8.00064,0,0,0,4.01172,9.68554L64,180.94434V208a7.99873,7.99873,0,0,0,5.0293,7.42773l31.92675,12.77149L99.05566,232H72a7.99825,7.99825,0,0,0-7.15527,4.42285l-8.56494,17.13062A111.89788,111.89788,0,0,1,69.33594,100.5166L58.66406,88.59473A128.20106,128.20106,0,0,0,16,184c0,67.8916,53.134,123.59814,120,127.74268Z"/><path d="M144,192a7.99829,7.99829,0,0,0,6.34961-3.13379C156.251,181.167,208,112.69629,208,80A64,64,0,0,0,80,80c0,32.69629,51.749,101.167,57.65039,108.86621A7.99829,7.99829,0,0,0,144,192ZM96,80a48,48,0,0,1,96,0c0,20.35352-30.38867,66.38281-47.98145,90.58008-5.32324-7.3418-13.3164-18.70313-21.25781-31.25879C99.47656,102.50879,96,86.35352,96,80Z"/><path d="M176,80a32,32,0,1,0-32,32A32.03667,32.03667,0,0,0,176,80ZM144,96a16,16,0,1,1,16-16A16.01833,16.01833,0,0,1,144,96Z"/></g></svg>
